# xmcd
#
# Track frame offsets:
# 150
# 5415
# 34298
# 53343
# 76443
# 90450
# 104823
# 124420
# 140045
# 147375
# 158780
#
# Disc length: 2426 seconds
#
#
# Revision: 0
# Processed by: cddbd v1.5.2PL0 Copyright (c) Steve Scherf et al.
# Submitted via: Nero 7, 11, 10, 0 
#
DISCID=9609780b
DTITLE=Jimmy Spacek - Sooner Or Later
DYEAR=1990
DGENRE=Blues
TTITLE0=Cruize
TTITLE1=On The Run
TTITLE2=Hey Lady
TTITLE3=No Time To Talk About It
TTITLE4=Sooner Or Later
TTITLE5=Three Good Reasons
TTITLE6=Stormy Weather
TTITLE7=Middle Man Blues
TTITLE8=Cruize Back
TTITLE9=Move Me
TTITLE10=Decision
EXTD=
EXTT0=Cruize
EXTT1=On The Run
EXTT2=Hey Lady
EXTT3=No Time To Talk About It
EXTT4=Sooner Or Later
EXTT5=Three Good Reasons
EXTT6=Stormy Weather
EXTT7=Middle Man Blues
EXTT8=Cruize Back
EXTT9=Move Me
EXTT10=Decision
PLAYORDER=
